
<svg width="100%" height="100%" viewBox="0 0 73 73" version="1.1" xmlns="http://www.w3.org/2000/svg"
     xmlns:xlink="http://www.w3.org/1999/xlink" xml:space="preserve"
     style="fill-rule:evenodd;clip-rule:evenodd;stroke-linejoin:round;stroke-miterlimit:2;">
    <script>

    </script>
    <path
            fill="#256ec2"
            d="M45.534,25.617c-1.669,-2.342 -1.452,-5.618 0.648,-7.719c2.342,-2.342 6.144,-2.342 8.485,0c2.342,
            2.342 2.342,6.144 0,8.485c-2.1,2.101 -5.376,2.317 -7.719,0.649l-4.345,4.345c2.238,2.877 2.238,6.935 0,
            9.812l4.345,4.345c2.343,-1.669 5.619,-1.452 7.719,0.648c2.342,2.342 2.342,6.144 0,8.485c-2.1,2.101 -5.376,
            2.317 -7.719,0.649l-4.345,4.345c2.44,3.137 2.219,7.68 -0.663,10.563c-3.123,3.122 -8.192,3.122 -11.314,
            0c-3.122,-3.122 -3.122,-8.192 0,-11.314c2.883,-2.883 7.425,-3.104 10.563,-0.663l4.345,-4.345c-1.477,
            -2.074 -1.477,-4.88 0,-6.954l-4.345,-4.345c-3.138,2.44 -7.68,2.219 -10.563,-0.663c-1.307,-1.307 -2.066,
            -2.954 -2.279,-4.657l-12.412,0c-0.214,1.703 -0.973,3.35 -2.28,4.657c-3.122,3.122 -8.191,3.122 -11.313,
            0c-3.123,-3.123 -3.123,-8.192 0,-11.314c3.122,-3.122 8.191,-3.122 11.313,0c1.307,1.306 2.066,2.954 2.28,
            4.657l12.412,0c0.213,-1.703 0.972,-3.351 2.279,-4.657c2.883,-2.883 7.425,-3.104 10.563,-0.663l4.345,
            -4.346Zm-13.494,34.707c2.342,-2.341 6.144,-2.341 8.485,0c2.342,2.342 2.342,6.144 0,8.486c-2.341,
            2.341 -6.143,2.341 -8.485,0c-2.342,-2.342 -2.342,-6.144 0,-8.486Zm-15.556,-15.556c3.122,-3.122 8.191,
            -3.122 11.313,0c3.123,3.122 3.123,8.192 0,11.314c-3.122,3.122 -8.191,3.122 -11.313,0c-3.122,-3.122 -3.122,
            -8.192 0,-11.314Zm1.414,1.414c2.342,-2.341 6.144,-2.341 8.485,0c2.342,2.342 2.342,6.144 0,8.485c-2.341,
            2.342 -6.143,2.342 -8.485,0c-2.342,-2.341 -2.342,-6.143 0,-8.485Zm41.012,-15.556c3.122,-3.122 8.192,
            -3.122 11.314,0c3.122,3.122 3.122,8.191 0,11.314c-3.122,3.122 -8.192,3.122 -11.314,0c-3.122,-3.123 -3.122,
            -8.192 0,-11.314Zm1.414,1.414c2.342,-2.342 6.144,-2.342 8.486,0c2.341,2.342 2.341,6.144 0,8.485c-2.342,
            2.342 -6.144,2.342 -8.486,0c-2.341,-2.341 -2.341,-6.143 0,-8.485Zm-28.284,0c2.342,-2.342 6.144,
            -2.342 8.485,0c2.342,2.342 2.342,6.144 0,8.485c-2.341,2.342 -6.143,2.342 -8.485,0c-2.342,-2.341 -2.342,
            -6.143 0,-8.485Zm-28.284,0c2.341,-2.342 6.143,-2.342 8.485,0c2.342,2.342 2.342,6.144 0,8.485c-2.342,
            2.342 -6.144,2.342 -8.485,0c-2.342,-2.341 -2.342,-6.143 0,-8.485Zm26.207,-19.136c-2.441,-3.137 -2.22,
            -7.68 0.663,-10.562c3.122,-3.123 8.191,-3.123 11.314,0c3.122,3.122 3.122,8.191 0,11.313c-2.883,
            2.883 -7.426,3.104 -10.563,0.664l-4.345,4.345c1.668,2.342 1.452,5.619 -0.649,7.719c-2.341,2.342 -6.143,
            2.342 -8.485,0c-2.342,-2.341 -2.342,-6.143 0,-8.485c2.101,-2.101 5.377,-2.317 7.719,-0.648l4.346,
            -4.346Zm2.077,-9.148c2.342,-2.342 6.144,-2.342 8.485,0c2.342,2.341 2.342,6.143 0,8.485c-2.341,2.342 -6.143,
            2.342 -8.485,0c-2.342,-2.342 -2.342,-6.144 0,-8.485Z" /></svg>