<?xml version="1.0" encoding="UTF-8" standalone="no"?>
<svg
   id="b"
   data-name="Ebene 2"
   viewBox="0 -40 2000 554.86"
   version="1.1"
   sodipodi:docname="logo.svg"
   inkscape:version="1.3.2 (091e20ef0f, 2023-11-25)"
   width="2000"
   height="554.85999"
   inkscape:export-filename="logo.png"
   inkscape:export-xdpi="96"
   inkscape:export-ydpi="96"
   xmlns:inkscape="http://www.inkscape.org/namespaces/inkscape"
   xmlns:sodipodi="http://sodipodi.sourceforge.net/DTD/sodipodi-0.dtd"
   xmlns="http://www.w3.org/2000/svg"
   xmlns:svg="http://www.w3.org/2000/svg">
  <defs
     id="defs14" />
  <sodipodi:namedview
     id="namedview14"
     pagecolor="#000000"
     bordercolor="#666666"
     borderopacity="1.0"
     inkscape:showpageshadow="2"
     inkscape:pageopacity="0.0"
     inkscape:pagecheckerboard="0"
     inkscape:deskcolor="#d1d1d1"
     inkscape:zoom="1.2558758"
     inkscape:cx="1604.8561"
     inkscape:cy="277.49559"
     inkscape:window-width="2560"
     inkscape:window-height="1403"
     inkscape:window-x="0"
     inkscape:window-y="0"
     inkscape:window-maximized="1"
     inkscape:current-layer="g10" />
  <g
     id="c"
     data-name="Ebene 5">
    <g
       id="g14">
      <g
         id="g10"
         inkscape:groupmode="layer"
         transform="translate(-53.115947,-15.676312)">
        <path
           d="m 677.5,350.18 c -1.67,0 -3.09,-0.58 -4.25,-1.75 -1.17,-1.16 -1.75,-2.58 -1.75,-4.25 V 205.93 h -46.25 c -1.67,0 -3.09,-0.58 -4.25,-1.75 -1.17,-1.16 -1.75,-2.58 -1.75,-4.25 v -18.5 c 0,-1.83 0.58,-3.33 1.75,-4.5 1.17,-1.17 2.58,-1.75 4.25,-1.75 h 127.5 c 1.83,0 3.33,0.59 4.5,1.75 1.16,1.17 1.75,2.67 1.75,4.5 v 18.5 c 0,1.67 -0.59,3.09 -1.75,4.25 -1.16,1.16 -2.67,1.75 -4.5,1.75 h -46 v 138.25 c 0,1.67 -0.59,3.09 -1.75,4.25 -1.16,1.16 -2.67,1.75 -4.5,1.75 z"
           id="path1"
           style="opacity:1;fill:#333333;fill-opacity:1;stroke:#ffffff;stroke-width:1;stroke-dasharray:none;stroke-opacity:1" />
        <path
           d="m 755.25,350.18 c -1.34,0 -2.54,-0.5 -3.62,-1.5 -1.09,-1 -1.62,-2.25 -1.62,-3.75 0,-0.66 0.16,-1.41 0.5,-2.25 l 60.25,-161.25 c 0.5,-1.66 1.46,-3.12 2.88,-4.38 1.41,-1.25 3.38,-1.88 5.88,-1.88 h 27.25 c 2.5,0 4.41,0.62 5.75,1.88 1.33,1.25 2.33,2.71 3,4.38 l 60.25,161.25 c 0.16,0.84 0.25,1.59 0.25,2.25 0,1.5 -0.5,2.75 -1.5,3.75 -1,1 -2.17,1.5 -3.5,1.5 h -21.75 c -2.34,0 -4.04,-0.54 -5.12,-1.62 -1.09,-1.08 -1.79,-2.12 -2.12,-3.12 l -11.75,-30.5 h -74.25 l -11.75,30.5 c -0.34,1 -1.04,2.04 -2.12,3.12 -1.08,1.08 -2.79,1.62 -5.12,1.62 h -21.75 z m 49.5,-64 H 861.5 L 833,208.93 Z"
           id="path2"
           style="opacity:1;fill:#333333;fill-opacity:1;stroke:#ffffff;stroke-width:1;stroke-dasharray:none;stroke-opacity:1" />
        <path
           d="m 945.25,350.18 c -1.67,0 -3.09,-0.58 -4.25,-1.75 -1.17,-1.16 -1.75,-2.58 -1.75,-4.25 V 181.43 c 0,-1.83 0.58,-3.33 1.75,-4.5 1.17,-1.17 2.58,-1.75 4.25,-1.75 H 1010 c 20.16,0 36.08,4.67 47.75,14 11.66,9.34 17.5,22.92 17.5,40.75 0,12.34 -3.04,22.59 -9.12,30.75 -6.09,8.17 -14.21,14.09 -24.38,17.75 l 36.5,63.75 c 0.5,1 0.75,1.92 0.75,2.75 0,1.5 -0.54,2.75 -1.62,3.75 -1.09,1 -2.29,1.5 -3.62,1.5 h -22.75 c -2.84,0 -5,-0.75 -6.5,-2.25 -1.5,-1.5 -2.67,-3 -3.5,-4.5 l -32.25,-59.25 h -34.75 v 60 c 0,1.67 -0.54,3.09 -1.62,4.25 -1.09,1.17 -2.54,1.75 -4.38,1.75 H 945.26 Z M 974,255.93 h 35.25 c 10.16,0 17.75,-2.29 22.75,-6.88 5,-4.58 7.5,-11.04 7.5,-19.38 0,-8.34 -2.46,-14.88 -7.38,-19.62 -4.92,-4.75 -12.54,-7.12 -22.88,-7.12 h -35.25 v 53 z"
           id="path3"
           style="opacity:1;fill:#333333;fill-opacity:1;stroke:#ffffff;stroke-width:1;stroke-dasharray:none;stroke-opacity:1" />
        <path
           d="m 1096.74,350.18 c -1.34,0 -2.54,-0.5 -3.62,-1.5 -1.09,-1 -1.62,-2.25 -1.62,-3.75 0,-0.66 0.16,-1.41 0.5,-2.25 l 60.25,-161.25 c 0.5,-1.66 1.46,-3.12 2.88,-4.38 1.41,-1.25 3.38,-1.88 5.88,-1.88 h 27.25 c 2.5,0 4.41,0.62 5.75,1.88 1.33,1.25 2.33,2.71 3,4.38 l 60.25,161.25 c 0.16,0.84 0.25,1.59 0.25,2.25 0,1.5 -0.5,2.75 -1.5,3.75 -1,1 -2.17,1.5 -3.5,1.5 h -21.75 c -2.34,0 -4.04,-0.54 -5.12,-1.62 -1.09,-1.08 -1.79,-2.12 -2.12,-3.12 l -11.75,-30.5 h -74.25 l -11.75,30.5 c -0.34,1 -1.04,2.04 -2.12,3.12 -1.08,1.08 -2.79,1.62 -5.12,1.62 h -21.75 z m 49.5,-64 h 56.75 l -28.5,-77.25 z"
           id="path4"
           style="opacity:1;fill:#333333;fill-opacity:1;stroke:#ffffff;stroke-width:1;stroke-dasharray:none;stroke-opacity:1" />
        <path
           d="m 1286.74,350.18 c -1.67,0 -3.09,-0.58 -4.25,-1.75 -1.17,-1.16 -1.75,-2.58 -1.75,-4.25 V 181.43 c 0,-1.83 0.58,-3.33 1.75,-4.5 1.17,-1.17 2.58,-1.75 4.25,-1.75 h 19.25 c 2.33,0 4.04,0.54 5.12,1.62 1.08,1.09 1.79,1.88 2.12,2.38 l 72,112 V 181.43 c 0,-1.83 0.54,-3.33 1.62,-4.5 1.08,-1.16 2.54,-1.75 4.38,-1.75 h 21 c 1.83,0 3.33,0.59 4.5,1.75 1.16,1.17 1.75,2.67 1.75,4.5 v 162.5 c 0,1.84 -0.59,3.34 -1.75,4.5 -1.16,1.16 -2.59,1.75 -4.25,1.75 h -19.5 c -2.34,0 -4,-0.58 -5,-1.75 -1,-1.16 -1.75,-1.91 -2.25,-2.25 l -71.75,-109.5 v 107.5 c 0,1.67 -0.59,3.09 -1.75,4.25 -1.16,1.16 -2.67,1.75 -4.5,1.75 h -21 z"
           id="path5"
           style="opacity:1;fill:#333333;fill-opacity:1;stroke:#ffffff;stroke-width:1;stroke-dasharray:none;stroke-opacity:1" />
        <path
           d="m 1463.49,350.18 c -1.67,0 -3.09,-0.58 -4.25,-1.75 -1.17,-1.16 -1.75,-2.58 -1.75,-4.25 v -163 c 0,-1.66 0.58,-3.08 1.75,-4.25 1.17,-1.17 2.58,-1.75 4.25,-1.75 h 23.5 c 1.83,0 3.29,0.59 4.38,1.75 1.08,1.17 1.62,2.59 1.62,4.25 v 163 c 0,1.67 -0.54,3.09 -1.62,4.25 -1.09,1.17 -2.54,1.75 -4.38,1.75 z"
           id="path6"
           style="opacity:1;fill:#333333;fill-opacity:1;stroke:#ffffff;stroke-width:1;stroke-dasharray:none;stroke-opacity:1" />
        <path
           d="m 1592.99,352.68 c -15.5,0 -28.46,-2.29 -38.88,-6.88 -10.42,-4.58 -18.34,-10.58 -23.75,-18 -5.42,-7.41 -8.29,-15.21 -8.62,-23.38 0,-1.5 0.5,-2.75 1.5,-3.75 1,-1 2.25,-1.5 3.75,-1.5 h 22.25 c 2.16,0 3.79,0.46 4.88,1.38 1.08,0.92 2.04,2.04 2.88,3.38 1,3.17 2.91,6.29 5.75,9.38 2.83,3.09 6.71,5.62 11.62,7.62 4.91,2 11.12,3 18.62,3 12,0 20.96,-2 26.88,-6 5.91,-4 8.88,-9.41 8.88,-16.25 0,-4.83 -1.59,-8.71 -4.75,-11.62 -3.17,-2.91 -8.04,-5.58 -14.62,-8 -6.59,-2.41 -15.29,-4.96 -26.12,-7.62 -12.5,-3 -22.96,-6.62 -31.38,-10.88 -8.42,-4.25 -14.75,-9.62 -19,-16.12 -4.25,-6.5 -6.38,-14.75 -6.38,-24.75 0,-10 2.62,-18.25 7.88,-25.75 5.26,-7.5 12.75,-13.41 22.5,-17.75 9.75,-4.33 21.38,-6.5 34.88,-6.5 10.83,0 20.41,1.46 28.75,4.38 8.33,2.92 15.25,6.75 20.75,11.5 5.5,4.75 9.71,9.84 12.62,15.25 2.91,5.42 4.46,10.71 4.62,15.88 0,1.34 -0.46,2.54 -1.38,3.62 -0.92,1.09 -2.21,1.62 -3.88,1.62 h -23.25 c -1.34,0 -2.67,-0.33 -4,-1 -1.34,-0.66 -2.42,-1.91 -3.25,-3.75 -1,-5.16 -4.25,-9.58 -9.75,-13.25 -5.5,-3.66 -12.59,-5.5 -21.25,-5.5 -8.66,0 -16.25,1.67 -21.75,5 -5.5,3.34 -8.25,8.5 -8.25,15.5 0,4.67 1.38,8.54 4.12,11.62 2.75,3.09 7.16,5.79 13.25,8.12 6.08,2.34 14.12,4.84 24.12,7.5 14.16,3.17 25.75,6.84 34.75,11 9,4.17 15.58,9.46 19.75,15.88 4.16,6.42 6.25,14.54 6.25,24.38 0,11 -2.96,20.38 -8.88,28.12 -5.92,7.75 -14.21,13.71 -24.88,17.88 -10.67,4.16 -23.09,6.25 -37.25,6.25 z"
           id="path7"
           style="opacity:1;fill:#333333;fill-opacity:1;stroke:#ffffff;stroke-width:1;stroke-dasharray:none;stroke-opacity:1" />
        <path
           d="m 1756.5579,348.7119 c -1.34,0 -2.54,-0.54 -3.62,-1.62 -1.09,-1.08 -1.62,-2.29 -1.62,-3.62 0,-0.83 0.08,-1.58 0.25,-2.25 l 58.75,-160.5 c 0.5,-1.83 1.54,-3.46 3.12,-4.88 1.58,-1.41 3.79,-2.12 6.62,-2.12 h 37 c 2.83,0 5.04,0.71 6.62,2.12 1.58,1.42 2.62,3.04 3.12,4.88 l 58.5,160.5 c 0.33,0.67 0.5,1.42 0.5,2.25 0,1.34 -0.54,2.54 -1.62,3.62 -1.08,1.08 -2.38,1.62 -3.88,1.62 h -30.75 c -2.5,0 -4.38,-0.62 -5.62,-1.88 -1.24,-1.26 -2.04,-2.38 -2.38,-3.38 l -9.75,-25.5 h -66.75 l -9.5,25.5 c -0.34,1 -1.09,2.12 -2.25,3.38 -1.17,1.25 -3.17,1.88 -6,1.88 h -30.75 z m 58.75,-66.75 h 46.5 l -23.5,-66 z"
           style="fill:#7468e8"
           id="path9" />
        <path
           d="m 1951.7979,348.7119 c -1.84,0 -3.34,-0.58 -4.5,-1.75 -1.17,-1.16 -1.75,-2.66 -1.75,-4.5 v -162.5 c 0,-1.83 0.58,-3.33 1.75,-4.5 1.17,-1.17 2.66,-1.75 4.5,-1.75 h 33.5 c 1.83,0 3.33,0.59 4.5,1.75 1.16,1.17 1.75,2.67 1.75,4.5 v 162.5 c 0,1.84 -0.59,3.34 -1.75,4.5 -1.16,1.16 -2.67,1.75 -4.5,1.75 z"
           style="fill:#7468e8"
           id="path10" />
      </g>
      <g
         id="g13">
        <path
           d="m 514.98,429.7 v 0 C 503.81,353.13 456.4,283.35 389.2,244.57 c -2.46,15.84 -6.25,31.61 -11.31,47.14 43.41,29.19 76.17,75.03 88.48,126.81 -51.64,18.24 -108.02,12.64 -153.84,-13.69 -0.05,0.05 -0.1,0.1 -0.14,0.16 -26.81,-15.01 -50.11,-35.98 -68.72,-60.09 0.08,-0.09 0.17,-0.18 0.25,-0.27 -14.25,-18.52 -25.63,-38.55 -34.22,-60.32 -14.84,4.01 -29.03,9.79 -42.3,17.1 2.29,5.78 4.79,11.5 7.46,17.17 h -0.46 c 58.82,125.71 197.67,193.08 327.04,135.45 v 0 c 0,0 16.15,-6.95 16.15,-6.95 z"
           style="fill:#7468e8"
           id="path11" />
        <path
           d="M 205.06,404.83 C 162,430.06 103.45,437.31 51.18,418.68 c 12.28,-51.85 45.04,-97.75 88.5,-126.97 -0.03,-0.08 -0.05,-0.16 -0.08,-0.25 25.26,-17.01 54.19,-28.78 85.07,-33.79 0,0.03 0.01,0.05 0.02,0.08 22.26,-3.71 45.97,-3.7 68.19,0 4.31,-14.62 7.07,-29.73 8.01,-44.95 -13.98,-2.3 -28.22,-3.48 -42.55,-3.44 v 0 C 133.48,207.27 18.68,306.11 2.16,429.72 L 0,447.1 l 16.15,6.95 c 0,0 0,0 0,0 73.55,32.42 156.11,26.63 223.18,-16.65 -12.15,-9.84 -23.62,-20.74 -34.27,-32.58 z"
           style="fill:#7468e8"
           id="path12" />
        <path
           d="m 193.43,194.24 c 0.68,-48.64 23.9,-101.29 65.13,-136.3 82.38,72.19 78.06,178.18 34.94,255.83 h 0.45 c -5.95,10.74 -12.72,21 -20.28,30.84 10.28,11.27 21.77,21.49 34.3,30.23 17.33,-21.99 31.93,-47.41 42.21,-73.44 -0.12,-0.07 -0.25,-0.13 -0.38,-0.2 11.85,-29.96 18.44,-61.23 19.43,-92.12 0.15,0.06 0.3,0.12 0.45,0.19 C 373.02,123.65 331.29,48.83 258.78,0 l -13.64,10.17 c 0,0 0,0 0,0 -65.36,48.27 -100.1,120.58 -97.27,199.11 14.71,-6.3 29.95,-11.32 45.55,-15.04 z"
           style="fill:#7468e8"
           id="path13" />
      </g>
    </g>
  </g>
</svg>
