<?xml version="1.0" encoding="UTF-8" standalone="no"?><!DOCTYPE svg PUBLIC "-//W3C//DTD SVG 1.1//EN"
        "http://www.w3.org/Graphics/SVG/1.1/DTD/svg11.dtd">
<svg width="100%" height="100%" viewBox="0 0 372 318" version="1.1" xmlns="http://www.w3.org/2000/svg"
     xmlns:xlink="http://www.w3.org/1999/xlink" xml:space="preserve" xmlns:serif="http://www.serif.com/"
     style="fill-rule:evenodd;clip-rule:evenodd;stroke-linejoin:round;stroke-miterlimit:2;"><rect id="Taranis-Logo-Login" serif:id="Taranis Logo Login" x="0" y="0" width="371.483" height="317.502" style="fill:none;"/>
    <g><g id="NG"><path d="M362.606,256.183c0,-1.248 -1.013,-2.261 -2.26,-2.261l-46.745,0c-1.247,0 -2.26,1.013 -2.26,2.261l0,24.187c0,1.248 1.013,2.261 2.26,2.261l46.745,0c1.247,0 2.26,-1.013 2.26,-2.261l0,-24.187Z"/><path
            d="M315.442,278.529l0,-20.506l4.101,0l12.304,14.355l0,-14.355l4.101,0l0,20.506l-4.101,0l-12.304,-14.354l0,14.354l-4.101,0Z"
            style="fill:#fff;"/><path
            d="M354.404,264.175l4.101,0l0,-4.101l-2.051,-2.051l-16.405,0l-2.05,2.051l0,16.405l2.05,2.05l18.456,0l0,-12.303l-10.253,0l0,4.101l6.152,0l0,4.101l-12.304,0l0,-12.303l12.304,0l0,2.05Z"
            style="fill:#fff;"/></g>
        <path id="Taranis"
              d="M289.81,288.783l-32.81,0l-4.101,-4.102l0,-8.202l8.202,0l0,4.101l24.607,0l0,-8.202l-28.708,0l-4.101,-4.102l0,-16.404l4.101,-4.102l32.81,0l4.101,4.102l0,8.202l-8.203,0l0,-4.101l-24.607,0l0,8.202l28.709,0l4.101,4.101l0,16.405l-4.101,4.102Zm-51.266,-41.013l8.203,0l0,41.013l-8.203,0l0,-41.013Zm-53.315,14.355l0,26.658l-8.203,0l0,-8.203l-24.607,0l0,8.203l-8.202,0l0,-41.013l26.658,0l14.354,14.355Zm14.354,26.658l-8.202,0l0,-41.013l8.202,0l24.607,28.709l0,-28.709l8.203,0l0,41.013l-8.203,0l-24.607,-28.709l0,28.709Zm-108.682,0l-8.202,0l0,-8.203l-24.607,0l0,8.203l-8.203,0l0,-26.658l14.354,-14.355l26.658,0l0,41.013Zm14.354,0l-8.202,0l0,-41.013l32.81,0l8.202,8.203l0,16.405l-4.101,4.101l4.101,4.101l0,8.203l-8.202,0l0,-4.102l-4.102,-4.101l-20.506,0l0,8.203Zm-55.366,-32.81l-16.405,0l0,32.81l-8.202,0l0,-32.81l-16.405,0l0,-8.203l41.012,0l0,8.203Zm32.81,0l-14.354,0l-10.253,10.253l0,6.152l24.607,0l0,-16.405Zm84.074,0l-14.354,0l0,16.405l24.607,0l0,-6.152l-10.253,-10.253Zm-41.012,0l-20.506,0l0,16.405l20.506,0l4.102,-4.102l0,-8.202l-4.102,-4.101Z"/>
        <path id="Logo"
              d="M210.726,97.905c-4.506,-6.326 -3.922,-15.174 1.751,-20.848c6.324,-6.324 16.593,-6.324 22.917,0c6.323,6.324 6.323,16.593 0,22.916c-5.674,5.674 -14.522,6.257 -20.848,1.751l-11.736,11.736c6.044,7.769 6.044,18.729 0,26.499l11.736,11.735c6.326,-4.506 15.174,-3.922 20.848,1.751c6.323,6.324 6.323,16.592 0,22.916c-5.674,5.674 -14.522,6.257 -20.848,1.751l-11.736,11.735c6.591,8.473 5.994,20.742 -1.791,28.527c-8.432,8.432 -22.123,8.432 -30.555,0c-8.432,-8.431 -8.432,-22.123 0,-30.555c7.785,-7.785 20.054,-8.382 28.527,-1.791l11.735,-11.735c-3.989,-5.601 -3.989,-13.179 0,-18.78l-11.735,-11.735c-8.473,6.591 -20.742,5.994 -28.527,-1.791c-3.528,-3.529 -5.58,-7.978 -6.156,-12.577l-33.521,0c-0.576,4.599 -2.627,9.048 -6.156,12.577c-8.432,8.432 -22.123,8.432 -30.555,0c-8.432,-8.432 -8.432,-22.123 0,-30.555c8.432,-8.432 22.123,-8.432 30.555,0c3.529,3.528 5.58,7.977 6.156,12.576l33.521,0c0.576,-4.599 2.628,-9.048 6.156,-12.576c7.785,-7.786 20.054,-8.383 28.527,-1.792l11.735,-11.735Zm-36.443,93.734c6.324,-6.324 16.593,-6.324 22.917,0c6.324,6.324 6.324,16.592 0,22.916c-6.324,6.324 -16.593,6.324 -22.917,0c-6.324,-6.324 -6.324,-16.592 0,-22.916Zm-42.013,-42.014c8.432,-8.431 22.123,-8.431 30.555,0c8.432,8.432 8.432,22.124 0,30.556c-8.432,8.431 -22.123,8.431 -30.555,0c-8.432,-8.432 -8.432,-22.124 0,-30.556Zm3.819,3.82c6.324,-6.324 16.593,-6.324 22.917,0c6.324,6.324 6.324,16.592 0,22.916c-6.324,6.324 -16.593,6.324 -22.917,0c-6.323,-6.324 -6.323,-16.592 0,-22.916Zm110.763,-42.013c8.432,-8.432 22.123,-8.432 30.555,0c8.432,8.432 8.432,22.123 0,30.555c-8.432,8.432 -22.123,8.432 -30.555,0c-8.432,-8.432 -8.432,-22.123 0,-30.555Zm3.819,3.819c6.324,-6.324 16.592,-6.324 22.916,0c6.324,6.324 6.324,16.592 0,22.916c-6.324,6.324 -16.592,6.324 -22.916,0c-6.324,-6.324 -6.324,-16.592 0,-22.916Zm-76.388,0c6.324,-6.324 16.593,-6.324 22.917,0c6.324,6.324 6.324,16.592 0,22.916c-6.324,6.324 -16.593,6.324 -22.917,0c-6.324,-6.324 -6.324,-16.592 0,-22.916Zm-76.387,0c6.324,-6.324 16.592,-6.324 22.916,0c6.324,6.324 6.324,16.592 0,22.916c-6.324,6.324 -16.592,6.324 -22.916,0c-6.324,-6.324 -6.324,-16.592 0,-22.916Zm70.777,-51.68c-6.591,-8.473 -5.994,-20.742 1.791,-28.527c8.432,-8.432 22.123,-8.432 30.555,0c8.432,8.432 8.432,22.123 0,30.555c-7.785,7.785 -20.054,8.382 -28.527,1.791l-11.735,11.736c4.506,6.326 3.922,15.174 -1.751,20.847c-6.324,6.324 -16.593,6.324 -22.917,0c-6.323,-6.323 -6.323,-16.592 0,-22.916c5.674,-5.673 14.522,-6.257 20.848,-1.751l11.736,-11.735Zm5.61,-24.708c6.324,-6.324 16.593,-6.324 22.917,0c6.324,6.324 6.324,16.593 0,22.917c-6.324,6.324 -16.593,6.324 -22.917,0c-6.324,-6.324 -6.324,-16.593 0,-22.917Z"
              style="fill:#358ceb;fill-opacity:0.5;"/></g></svg>