<?xml version="1.0" encoding="UTF-8"?><svg
  xmlns="http://www.w3.org/2000/svg"
  viewBox="0 0 973.71 715.87"
>
  <g id="c">
    <path
      d="m967.48,619.91h-128.67c-3.43,0-6.22,2.79-6.22,6.22v66.58c0,3.44,2.79,6.22,6.22,6.22h128.67c3.43,0,6.22-2.79,6.22-6.22v-66.58c0-3.44-2.79-6.22-6.22-6.22Zm-67.16,67.74h-11.29l-33.87-39.51v39.51h-11.29v-56.45h11.29l33.87,39.51v-39.51h11.29v56.45Zm62.09-39.51h-11.29,0v-5.64h-33.87v33.87h33.87v-11.29h-16.93v-11.29h28.22v33.87h-50.8l-5.64-5.64v-45.16l5.64-5.65h45.16l5.65,5.65v11.29Z"
      style="fill-rule: evenodd; stroke-width: 0px"
    />
    <path
      id="d"
      d="m773.32,715.87h-90.32l-11.29-11.29v-22.58h22.58v11.29h67.74v-22.58h-79.02l-11.29-11.29v-45.16l11.29-11.29h90.32l11.29,11.29v22.58h-22.58v-11.29h-67.74v22.58h79.03l11.29,11.29v45.16l-11.29,11.29h0Zm-141.12-112.9h22.58v112.9h-22.58v-112.9Zm-146.76,39.51v73.38h-22.58v-22.58h-67.74v22.58h-22.58v-112.9h73.38l39.51,39.51h0Zm39.51,73.38h-22.58v-112.9h22.58l67.74,79.03v-79.03h22.58v112.9h-22.58l-67.74-79.03v79.03h0Zm-299.17,0h-22.58v-22.58h-67.74v22.58h-22.58v-73.38l39.51-39.51h73.38v112.9h0Zm39.51,0h-22.58v-112.9h90.32l22.58,22.58v45.16l-11.29,11.29,11.29,11.29v22.58h-22.58v-11.29l-11.29-11.29h-56.45v22.58h0Zm-152.41-90.32h-45.16v90.32h-22.58v-90.32H0v-22.58h112.89v22.58h0Zm90.32,0h-39.51l-28.22,28.22v16.93h67.74v-45.16Zm231.43,0h-39.51v45.16h67.74v-16.93l-28.22-28.22h0Zm-112.89,0h-56.45v45.16h56.45l11.29-11.29v-22.58l-11.29-11.29h0Z"
      style="fill-rule: evenodd; stroke-width: 0px"
    />
    <path
      d="m407.56,128.24c-17.41-12.4-41.77-10.8-57.39,4.82-17.41,17.41-17.41,45.68,0,63.08,17.41,17.41,45.68,17.41,63.08,0,15.62-15.62,17.22-39.97,4.82-57.39l32.3-32.31c23.32,18.14,57.1,16.5,78.53-4.93,23.21-23.21,23.21-60.9,0-84.11s-60.9-23.21-84.11,0c-21.43,21.43-23.07,55.2-4.93,78.53h0l-32.31,32.3Zm47.75-100.32c17.41-17.41,45.68-17.41,63.08,0,17.41,17.41,17.41,45.68,0,63.08s-45.68,17.41-63.08,0-17.41-45.68,0-63.08Z"
      style="fill: #99c5f4; fill-rule: evenodd; stroke-width: 0px"
    />
    <path
      d="m655.07,227.68c-23.21,23.21-23.21,60.9,0,84.11s60.9,23.21,84.11,0c23.21-23.21,23.21-60.9,0-84.11-23.21-23.21-60.9-23.21-84.11,0Zm73.59,73.59c-17.41,17.41-45.67,17.41-63.08,0-17.41-17.41-17.41-45.67,0-63.08,17.41-17.41,45.67-17.41,63.08,0,17.41,17.41,17.41,45.67,0,63.08Z"
      style="fill: #99c5f4; fill-rule: evenodd; stroke-width: 0px"
    />
    <path
      d="m318.63,227.68c-23.21-23.21-60.9-23.21-84.11,0s-23.21,60.9,0,84.11c23.21,23.21,60.9,23.21,84.11,0,9.71-9.71,15.36-21.96,16.95-34.62h92.27c1.59,12.66,7.23,24.91,16.95,34.62,21.43,21.43,55.2,23.07,78.53,4.93l32.3,32.3c-10.98,15.42-10.98,36.28,0,51.7l-32.3,32.3c-23.32-18.14-57.1-16.5-78.53,4.93-23.21,23.21-23.21,60.9,0,84.11,23.21,23.21,60.9,23.21,84.11,0,21.43-21.43,23.07-55.2,4.93-78.53l32.31-32.3c17.41,12.4,41.77,10.8,57.39-4.82,17.41-17.41,17.41-45.67,0-63.08-15.62-15.62-39.97-17.22-57.39-4.82l-32.31-32.3c16.64-21.39,16.64-51.56,0-72.94l32.31-32.31c17.41,12.4,41.77,10.8,57.39-4.82,17.41-17.41,17.41-45.67,0-63.08-17.41-17.41-45.68-17.41-63.08,0-15.62,15.62-17.22,39.97-4.82,57.39h0s-32.3,32.3-32.3,32.3c-23.32-18.14-57.1-16.5-78.53,4.93-9.71,9.71-15.36,21.96-16.95,34.62h-92.27c-1.59-12.66-7.23-24.91-16.95-34.62Zm-10.51,73.59c-17.41,17.41-45.67,17.41-63.08,0-17.41-17.41-17.41-45.67,0-63.08,17.41-17.41,45.67-17.41,63.08,0,17.41,17.41,17.41,45.67,0,63.08Zm210.27,210.27c-17.41,17.41-45.68,17.41-63.08,0s-17.41-45.67,0-63.08c17.41-17.41,45.68-17.41,63.08,0,17.41,17.41,17.41,45.67,0,63.08Zm-63.08-273.35c17.41-17.41,45.68-17.41,63.08,0,17.41,17.41,17.41,45.67,0,63.08s-45.68,17.41-63.08,0-17.41-45.67,0-63.08Z"
      style="fill: #99c5f4; fill-rule: evenodd; stroke-width: 0px"
    />
    <path
      d="m339.66,332.81c-23.21,23.21-23.21,60.9,0,84.11,23.21,23.21,60.9,23.21,84.11,0,23.21-23.21,23.21-60.9,0-84.11-23.21-23.21-60.9-23.21-84.11,0Zm73.6,73.6c-17.41,17.41-45.68,17.41-63.08,0-17.41-17.41-17.41-45.67,0-63.08,17.41-17.41,45.68-17.41,63.08,0,17.41,17.41,17.41,45.67,0,63.08Z"
      style="fill: #99c5f4; fill-rule: evenodd; stroke-width: 0px"
    />
  </g>
</svg>
