<?xml version="1.0" encoding="UTF-8"?><svg
  xmlns="http://www.w3.org/2000/svg"
  viewBox="0 0 421.28 72.56"
>
  <g id="c">
    <path
      d="m350.28,56.28h-32l-4-4v-8h8v4h24v-8h-28l-4-4v-16l4-4h32l4,4v8h-8v-4h-24v8h28l4,4v16l-4,4Zm-42,0h-8V16.28h8v40Zm-92,0h-8V16.28h26l14,14v26h-8v-8h-24v8Zm-60,0h-8v-8h-24v8h-8v-26l14-14h26v40Zm106,0h-8V16.28h8l24,28v-28h8v40h-8l-24-28v28Zm-92,0h-8V16.28h32l8,8v16l-4,4,4,4v8h-8v-4l-4-4h-20v8Zm-54-32h-16v32h-8V24.28h-16v-8h40v8Zm32,0h-14l-10,10v6h24v-16Zm42,0h-20v16h20l4-4v-8l-4-4Zm40,0h-14v16h24v-6l-10-10Z"
      style="fill-rule: evenodd; stroke-width: 0px"
    />
    <path
      d="m54.67,26.38c2.34-2.34,2.34-6.14,0-8.49-2.34-2.34-6.14-2.34-8.49,0-2.1,2.1-2.32,5.38-.65,7.72l-4.35,4.35c-3.14-2.44-7.68-2.22-10.56.66-1.31,1.31-2.07,2.95-2.28,4.66h-12.41c-.21-1.7-.97-3.35-2.28-4.66-3.12-3.12-8.19-3.12-11.31,0s-3.12,8.19,0,11.31,8.19,3.12,11.31,0c1.31-1.31,2.07-2.95,2.28-4.66h12.41c.21,1.7.97,3.35,2.28,4.66,2.88,2.88,7.43,3.1,10.56.66l4.35,4.35c-1.48,2.07-1.48,4.88,0,6.95l-4.35,4.35c-3.14-2.44-7.68-2.22-10.56.66-3.12,3.12-3.12,8.19,0,11.31s8.19,3.12,11.31,0c2.88-2.88,3.1-7.42.66-10.56l4.35-4.35c2.34,1.67,5.62,1.45,7.72-.65,2.34-2.34,2.34-6.14,0-8.49-2.1-2.1-5.38-2.32-7.72-.65l-4.35-4.34c2.24-2.88,2.24-6.93,0-9.81l4.35-4.35c2.34,1.67,5.62,1.45,7.72-.65Zm-42.43,14.14c-2.34,2.34-6.14,2.34-8.48,0-2.34-2.34-2.34-6.14,0-8.48,2.34-2.34,6.14-2.34,8.48,0,2.34,2.34,2.34,6.14,0,8.48Zm28.29,28.28c-2.34,2.34-6.14,2.34-8.49,0s-2.34-6.14,0-8.48,6.14-2.34,8.49,0c2.34,2.34,2.34,6.14,0,8.48Zm0-28.28c-2.34,2.34-6.14,2.34-8.49,0-2.34-2.34-2.34-6.14,0-8.48s6.14-2.34,8.49,0c2.34,2.34,2.34,6.14,0,8.48Z"
      style="fill-rule: evenodd; stroke-width: 0px"
    />
    <path
      d="m27.8,44.77c-3.12-3.12-8.19-3.12-11.31,0-3.12,3.12-3.12,8.19,0,11.31,3.12,3.12,8.19,3.12,11.31,0,3.12-3.12,3.12-8.19,0-11.31Zm-1.41,9.9c-2.34,2.34-6.14,2.34-8.49,0-2.34-2.34-2.34-6.14,0-8.49,2.34-2.34,6.14-2.34,8.49,0,2.34,2.34,2.34,6.14,0,8.49Z"
      style="fill-rule: evenodd; stroke-width: 0px"
    />
    <path
      d="m70.22,30.63c-3.12-3.12-8.19-3.12-11.31,0-3.12,3.12-3.12,8.19,0,11.31s8.19,3.12,11.31,0,3.12-8.19,0-11.31Zm-1.41,9.9c-2.34,2.34-6.14,2.34-8.49,0s-2.34-6.14,0-8.48c2.34-2.34,6.14-2.34,8.49,0,2.34,2.34,2.34,6.14,0,8.48Z"
      style="fill-rule: evenodd; stroke-width: 0px"
    />
    <path
      d="m26.38,26.38c2.1-2.1,2.32-5.38.65-7.72l4.34-4.34c3.14,2.44,7.68,2.22,10.56-.66,3.12-3.12,3.12-8.19,0-11.31-3.12-3.12-8.19-3.12-11.31,0-2.88,2.88-3.1,7.43-.66,10.56l-4.34,4.34c-2.34-1.67-5.62-1.45-7.72.65-2.34,2.34-2.34,6.14,0,8.49,2.34,2.34,6.14,2.34,8.49,0Zm5.66-22.63c2.34-2.34,6.14-2.34,8.49,0,2.34,2.34,2.34,6.14,0,8.49-2.34,2.34-6.14,2.34-8.49,0-2.34-2.34-2.34-6.14,0-8.49Z"
      style="fill-rule: evenodd; stroke-width: 0px"
    />
    <path
      d="m419.08,22.28h-45.59c-1.22,0-2.2.99-2.2,2.2v23.59c0,1.22.99,2.2,2.2,2.2h45.59c1.22,0,2.2-.99,2.2-2.2v-23.59c0-1.22-.99-2.2-2.2-2.2Zm-23.8,24h-4l-12-14v14h-4v-20h4l12,14v-14h4v20Zm22-14h-4v-2h-12v12h12v-4h-6v-4h10v12h-18l-2-2v-16l2-2h16l2,2v4Z"
      style="stroke-width: 0px"
    />
  </g>
</svg>
