<?xml version="1.0" encoding="UTF-8"?>
<svg id="b" data-name="Ebene 2" xmlns="http://www.w3.org/2000/svg" viewBox="0 0 1667.09 868.12">
  <path d="M1190.49,407.71c-.6,0-1.12-.21-1.54-.63-.42-.42-.63-.94-.63-1.54v-50.13h-16.77c-.6,0-1.12-.21-1.54-.63-.42-.42-.63-.94-.63-1.54v-6.71c0-.66,.21-1.21,.63-1.63s.94-.63,1.54-.63h46.24c.66,0,1.21,.21,1.63,.63,.42,.42,.63,.97,.63,1.63v6.71c0,.6-.21,1.12-.63,1.54s-.97,.63-1.63,.63h-16.68v50.13c0,.6-.21,1.12-.63,1.54s-.97,.63-1.63,.63h-8.34Z"/>
  <path d="M1218.69,407.71c-.48,0-.92-.18-1.31-.54-.39-.36-.59-.82-.59-1.36,0-.24,.06-.51,.18-.82l21.85-58.48c.18-.6,.53-1.13,1.04-1.59,.51-.45,1.22-.68,2.13-.68h9.88c.91,0,1.6,.23,2.09,.68,.48,.45,.85,.98,1.09,1.59l21.85,58.48c.06,.3,.09,.58,.09,.82,0,.54-.18,1-.54,1.36s-.79,.54-1.27,.54h-7.89c-.85,0-1.47-.2-1.86-.59-.39-.39-.65-.77-.77-1.13l-4.26-11.06h-26.93l-4.26,11.06c-.12,.36-.38,.74-.77,1.13s-1.01,.59-1.86,.59h-7.89Zm17.95-23.21h20.58l-10.34-28.01-10.24,28.01Z"/>
  <path d="M1287.59,407.71c-.6,0-1.12-.21-1.54-.63-.42-.42-.63-.94-.63-1.54v-59.02c0-.66,.21-1.21,.63-1.63s.94-.63,1.54-.63h23.48c7.31,0,13.08,1.69,17.32,5.08,4.23,3.39,6.35,8.31,6.35,14.78,0,4.47-1.1,8.19-3.31,11.15-2.21,2.96-5.15,5.11-8.84,6.44l13.24,23.12c.18,.36,.27,.7,.27,1,0,.54-.2,1-.59,1.36-.39,.36-.83,.54-1.31,.54h-8.25c-1.03,0-1.81-.27-2.36-.82s-.97-1.09-1.27-1.63l-11.7-21.49h-12.6v21.76c0,.6-.2,1.12-.59,1.54-.39,.42-.92,.63-1.59,.63h-8.25Zm10.43-34.18h12.78c3.69,0,6.44-.83,8.25-2.49,1.81-1.66,2.72-4,2.72-7.03s-.89-5.39-2.67-7.12c-1.78-1.72-4.55-2.58-8.3-2.58h-12.78v19.22Z"/>
  <path d="M1342.53,407.71c-.48,0-.92-.18-1.31-.54-.39-.36-.59-.82-.59-1.36,0-.24,.06-.51,.18-.82l21.85-58.48c.18-.6,.53-1.13,1.04-1.59,.51-.45,1.22-.68,2.13-.68h9.88c.91,0,1.6,.23,2.09,.68,.48,.45,.85,.98,1.09,1.59l21.85,58.48c.06,.3,.09,.58,.09,.82,0,.54-.18,1-.54,1.36s-.79,.54-1.27,.54h-7.89c-.85,0-1.47-.2-1.86-.59-.39-.39-.65-.77-.77-1.13l-4.26-11.06h-26.93l-4.26,11.06c-.12,.36-.38,.74-.77,1.13s-1.01,.59-1.86,.59h-7.89Zm17.95-23.21h20.58l-10.34-28.01-10.24,28.01Z"/>
  <path d="M1411.43,407.71c-.6,0-1.12-.21-1.54-.63-.42-.42-.63-.94-.63-1.54v-59.02c0-.66,.21-1.21,.63-1.63s.94-.63,1.54-.63h6.98c.85,0,1.46,.2,1.86,.59,.39,.39,.65,.68,.77,.86l26.11,40.62v-39.8c0-.66,.2-1.21,.59-1.63,.39-.42,.92-.63,1.59-.63h7.62c.66,0,1.21,.21,1.63,.63,.42,.42,.63,.97,.63,1.63v58.93c0,.67-.21,1.21-.63,1.63s-.94,.63-1.54,.63h-7.07c-.85,0-1.45-.21-1.81-.63-.36-.42-.63-.69-.82-.82l-26.02-39.71v38.98c0,.6-.21,1.12-.63,1.54s-.97,.63-1.63,.63h-7.62Z"/>
  <path d="M1475.52,407.71c-.6,0-1.12-.21-1.54-.63-.42-.42-.63-.94-.63-1.54v-59.11c0-.6,.21-1.12,.63-1.54s.94-.63,1.54-.63h8.52c.66,0,1.19,.21,1.59,.63,.39,.42,.59,.94,.59,1.54v59.11c0,.6-.2,1.12-.59,1.54-.39,.42-.92,.63-1.59,.63h-8.52Z"/>
  <path d="M1522.49,408.61c-5.62,0-10.32-.83-14.1-2.49-3.78-1.66-6.65-3.84-8.61-6.53-1.96-2.69-3.01-5.51-3.13-8.48,0-.54,.18-1,.54-1.36s.82-.54,1.36-.54h8.07c.78,0,1.37,.17,1.77,.5,.39,.33,.74,.74,1.04,1.22,.36,1.15,1.06,2.28,2.09,3.4,1.03,1.12,2.43,2.04,4.22,2.77,1.78,.73,4.03,1.09,6.75,1.09,4.35,0,7.6-.73,9.75-2.18,2.14-1.45,3.22-3.41,3.22-5.89,0-1.75-.58-3.16-1.72-4.22-1.15-1.06-2.92-2.02-5.3-2.9-2.39-.88-5.55-1.8-9.47-2.77-4.53-1.09-8.33-2.4-11.38-3.94-3.05-1.54-5.35-3.49-6.89-5.85s-2.31-5.35-2.31-8.98,.95-6.62,2.86-9.34,4.62-4.86,8.16-6.44c3.54-1.57,7.75-2.36,12.65-2.36,3.93,0,7.4,.53,10.43,1.59,3.02,1.06,5.53,2.45,7.52,4.17s3.52,3.57,4.58,5.53c1.06,1.96,1.62,3.88,1.68,5.76,0,.48-.17,.92-.5,1.31-.33,.39-.8,.59-1.41,.59h-8.43c-.48,0-.97-.12-1.45-.36-.48-.24-.88-.69-1.18-1.36-.36-1.87-1.54-3.47-3.54-4.8-1.99-1.33-4.56-1.99-7.71-1.99s-5.89,.6-7.89,1.81c-1.99,1.21-2.99,3.08-2.99,5.62,0,1.69,.5,3.1,1.5,4.22,1,1.12,2.6,2.1,4.8,2.95,2.21,.85,5.12,1.75,8.75,2.72,5.14,1.15,9.34,2.48,12.6,3.99,3.26,1.51,5.65,3.43,7.16,5.76,1.51,2.33,2.27,5.27,2.27,8.84,0,3.99-1.07,7.39-3.22,10.2-2.15,2.81-5.15,4.97-9.02,6.48-3.87,1.51-8.37,2.27-13.51,2.27Z"/>
  <path d="M1581.87,407.71c-.48,0-.92-.2-1.31-.59-.39-.39-.59-.83-.59-1.31,0-.3,.03-.57,.09-.82l21.31-58.2c.18-.66,.56-1.25,1.13-1.77,.57-.51,1.37-.77,2.4-.77h13.42c1.03,0,1.83,.26,2.4,.77,.57,.51,.95,1.1,1.13,1.77l21.21,58.2c.12,.24,.18,.51,.18,.82,0,.48-.2,.92-.59,1.31s-.86,.59-1.41,.59h-11.15c-.91,0-1.59-.23-2.04-.68s-.74-.86-.86-1.22l-3.54-9.25h-24.21l-3.45,9.25c-.12,.36-.39,.77-.82,1.22-.42,.45-1.15,.68-2.18,.68h-11.15Zm21.31-24.21h16.86l-8.52-23.93-8.34,23.93Z" style="fill: #7468e8;"/>
  <path d="M1652.67,407.71c-.67,0-1.21-.21-1.63-.63-.42-.42-.63-.97-.63-1.63v-58.93c0-.66,.21-1.21,.63-1.63s.97-.63,1.63-.63h12.15c.66,0,1.21,.21,1.63,.63,.42,.42,.63,.97,.63,1.63v58.93c0,.67-.21,1.21-.63,1.63s-.97,.63-1.63,.63h-12.15Z" style="fill: #7468e8;"/>

  <path d="M1302.05,786.88h0c-16.57-146.15-97.63-266.22-222.59-333.98-4.65,28.35-11.58,56.57-20.72,84.35,76.51,45.79,138.23,131.5,155.54,227.75-92.07,33.2-196.85,22.62-275.01-20.8-.02,.02-.04,.04-.05,.06-85.33-45.89-150.97-122.25-189.46-210.11-27.29,5.88-54.04,14.72-79.33,26.63,4.95,11.79,10.35,23.45,16.19,34.97h-.01c111.61,221.3,357.33,337.51,590.53,234.3,0,0,0,0,0,0l28.56-12.3-3.64-30.88Z" style="fill: #7468e8;"/>
  <path d="M714.05,354.11c1.41-89.14,44.72-185.47,119.46-248.53,165.53,147.9,142.7,365.62,32.35,517.67,18.73,20.69,39.73,39.43,62.68,55.38,15.74-20.69,30.31-42.92,42.99-66.01h0c9.25-16.84,17.66-34.14,25.09-51.86,0,0-.02,0-.03-.01,24.77-59.13,38.29-121.3,39.74-182.47,.01,0,.03,0,.04,.01,3.12-110.81-36.31-219.41-112.28-300.78-14.79-16.08-30.82-31.02-47.7-44.9-11.4-9.47-30.93-23.63-42.87-32.62l-24.93,18.6h0c-118.28,87.41-181.74,217.65-177.95,359.74,26.87-10.15,54.77-18.25,83.39-24.23Z" style="fill: #7468e8;"/>
  <path d="M727.78,744.2c-77.91,43.34-182.99,53.99-274.97,20.8,39.08-205.21,235.83-308.76,432.15-286.84,8.56-26.58,14.27-54.16,16.6-82.02-44.79-5.73-91.11-5.7-136.09,.02,0,0,0,.01,0,.02-63.56,8.09-124.15,27.42-177.9,56.79h0c-19.92,10.9-39.05,23.25-57.13,37,0,0,0,0,0,0,0,0,0,0,0,0-63.32,47.9-112.31,113.86-139.66,188.42-16.65,43.1-24.8,92.71-29.4,139.4l28.57,12.29s0,0,0,0c134.83,58.71,279.35,48.57,400.5-25.76-22.22-18.2-43.19-38.31-62.68-60.11Z" style="fill: #7468e8;"/>
</svg>