<?xml version="1.0" encoding="UTF-8"?>
<svg id="b" data-name="Ebene 2" xmlns="http://www.w3.org/2000/svg" viewBox="0 0 1972.81 442.13">
  <path d="M658.57,333.87c-1.67,0-3.09-.58-4.25-1.75-1.17-1.16-1.75-2.58-1.75-4.25V189.62h-46.25c-1.67,0-3.09-.58-4.25-1.75-1.17-1.16-1.75-2.58-1.75-4.25v-18.5c0-1.83,.58-3.33,1.75-4.5s2.58-1.75,4.25-1.75h127.5c1.83,0,3.33,.59,4.5,1.75,1.16,1.17,1.75,2.67,1.75,4.5v18.5c0,1.67-.59,3.09-1.75,4.25s-2.67,1.75-4.5,1.75h-46v138.25c0,1.67-.59,3.09-1.75,4.25s-2.67,1.75-4.5,1.75h-23Z"/>
  <path d="M736.32,333.87c-1.34,0-2.54-.5-3.62-1.5-1.09-1-1.62-2.25-1.62-3.75,0-.66,.16-1.41,.5-2.25l60.25-161.25c.5-1.66,1.46-3.12,2.88-4.38,1.41-1.25,3.38-1.88,5.88-1.88h27.25c2.5,0,4.41,.62,5.75,1.88,1.33,1.25,2.33,2.71,3,4.38l60.25,161.25c.16,.84,.25,1.59,.25,2.25,0,1.5-.5,2.75-1.5,3.75s-2.17,1.5-3.5,1.5h-21.75c-2.34,0-4.04-.54-5.12-1.62-1.09-1.08-1.79-2.12-2.12-3.12l-11.75-30.5h-74.25l-11.75,30.5c-.34,1-1.04,2.04-2.12,3.12s-2.79,1.62-5.12,1.62h-21.75Zm49.5-64h56.75l-28.5-77.25-28.25,77.25Z"/>
  <path d="M926.32,333.87c-1.67,0-3.09-.58-4.25-1.75-1.17-1.16-1.75-2.58-1.75-4.25V165.12c0-1.83,.58-3.33,1.75-4.5s2.58-1.75,4.25-1.75h64.75c20.16,0,36.08,4.67,47.75,14,11.66,9.34,17.5,22.92,17.5,40.75,0,12.34-3.04,22.59-9.12,30.75-6.09,8.17-14.21,14.09-24.38,17.75l36.5,63.75c.5,1,.75,1.92,.75,2.75,0,1.5-.54,2.75-1.62,3.75-1.09,1-2.29,1.5-3.62,1.5h-22.75c-2.84,0-5-.75-6.5-2.25s-2.67-3-3.5-4.5l-32.25-59.25h-34.75v60c0,1.67-.54,3.09-1.62,4.25-1.09,1.17-2.54,1.75-4.38,1.75h-22.75Zm28.75-94.25h35.25c10.16,0,17.75-2.29,22.75-6.88,5-4.58,7.5-11.04,7.5-19.38s-2.46-14.88-7.38-19.62c-4.92-4.75-12.54-7.12-22.88-7.12h-35.25v53Z"/>
  <path d="M1077.82,333.87c-1.34,0-2.54-.5-3.62-1.5-1.09-1-1.62-2.25-1.62-3.75,0-.66,.16-1.41,.5-2.25l60.25-161.25c.5-1.66,1.46-3.12,2.88-4.38,1.41-1.25,3.38-1.88,5.88-1.88h27.25c2.5,0,4.41,.62,5.75,1.88,1.33,1.25,2.33,2.71,3,4.38l60.25,161.25c.16,.84,.25,1.59,.25,2.25,0,1.5-.5,2.75-1.5,3.75s-2.17,1.5-3.5,1.5h-21.75c-2.34,0-4.04-.54-5.12-1.62-1.09-1.08-1.79-2.12-2.12-3.12l-11.75-30.5h-74.25l-11.75,30.5c-.34,1-1.04,2.04-2.12,3.12s-2.79,1.62-5.12,1.62h-21.75Zm49.5-64h56.75l-28.5-77.25-28.25,77.25Z"/>
  <path d="M1267.82,333.87c-1.67,0-3.09-.58-4.25-1.75-1.17-1.16-1.75-2.58-1.75-4.25V165.12c0-1.83,.58-3.33,1.75-4.5s2.58-1.75,4.25-1.75h19.25c2.33,0,4.04,.54,5.12,1.62,1.08,1.09,1.79,1.88,2.12,2.38l72,112v-109.75c0-1.83,.54-3.33,1.62-4.5,1.08-1.16,2.54-1.75,4.38-1.75h21c1.83,0,3.33,.59,4.5,1.75,1.16,1.17,1.75,2.67,1.75,4.5v162.5c0,1.84-.59,3.34-1.75,4.5s-2.59,1.75-4.25,1.75h-19.5c-2.34,0-4-.58-5-1.75-1-1.16-1.75-1.91-2.25-2.25l-71.75-109.5v107.5c0,1.67-.59,3.09-1.75,4.25s-2.67,1.75-4.5,1.75h-21Z"/>
  <path d="M1444.56,333.87c-1.67,0-3.09-.58-4.25-1.75-1.17-1.16-1.75-2.58-1.75-4.25V164.87c0-1.66,.58-3.08,1.75-4.25s2.58-1.75,4.25-1.75h23.5c1.83,0,3.29,.59,4.38,1.75,1.08,1.17,1.62,2.59,1.62,4.25v163c0,1.67-.54,3.09-1.62,4.25-1.09,1.17-2.54,1.75-4.38,1.75h-23.5Z"/>
  <path d="M1574.06,336.37c-15.5,0-28.46-2.29-38.88-6.88-10.42-4.58-18.34-10.58-23.75-18-5.42-7.41-8.29-15.21-8.62-23.38,0-1.5,.5-2.75,1.5-3.75s2.25-1.5,3.75-1.5h22.25c2.16,0,3.79,.46,4.88,1.38,1.08,.92,2.04,2.04,2.88,3.38,1,3.17,2.91,6.29,5.75,9.38,2.83,3.09,6.71,5.62,11.62,7.62,4.91,2,11.12,3,18.62,3,12,0,20.96-2,26.88-6,5.91-4,8.88-9.41,8.88-16.25,0-4.83-1.59-8.71-4.75-11.62-3.17-2.91-8.04-5.58-14.62-8-6.59-2.41-15.29-4.96-26.12-7.62-12.5-3-22.96-6.62-31.38-10.88-8.42-4.25-14.75-9.62-19-16.12s-6.38-14.75-6.38-24.75,2.62-18.25,7.88-25.75,12.75-13.41,22.5-17.75c9.75-4.33,21.38-6.5,34.88-6.5,10.83,0,20.41,1.46,28.75,4.38,8.33,2.92,15.25,6.75,20.75,11.5s9.71,9.84,12.62,15.25c2.91,5.42,4.46,10.71,4.62,15.88,0,1.34-.46,2.54-1.38,3.62-.92,1.09-2.21,1.62-3.88,1.62h-23.25c-1.34,0-2.67-.33-4-1-1.34-.66-2.42-1.91-3.25-3.75-1-5.16-4.25-9.58-9.75-13.25-5.5-3.66-12.59-5.5-21.25-5.5s-16.25,1.67-21.75,5c-5.5,3.34-8.25,8.5-8.25,15.5,0,4.67,1.38,8.54,4.12,11.62,2.75,3.09,7.16,5.79,13.25,8.12,6.08,2.34,14.12,4.84,24.12,7.5,14.16,3.17,25.75,6.84,34.75,11,9,4.17,15.58,9.46,19.75,15.88,4.16,6.42,6.25,14.54,6.25,24.38,0,11-2.96,20.38-8.88,28.12-5.92,7.75-14.21,13.71-24.88,17.88-10.67,4.16-23.09,6.25-37.25,6.25Z"/>
  <path d="M1737.81,333.87c-1.34,0-2.54-.54-3.62-1.62-1.09-1.08-1.62-2.29-1.62-3.62,0-.83,.08-1.58,.25-2.25l58.75-160.5c.5-1.83,1.54-3.46,3.12-4.88,1.58-1.41,3.79-2.12,6.62-2.12h37c2.83,0,5.04,.71,6.62,2.12,1.58,1.42,2.62,3.04,3.12,4.88l58.5,160.5c.33,.67,.5,1.42,.5,2.25,0,1.34-.54,2.54-1.62,3.62s-2.38,1.62-3.88,1.62h-30.75c-2.5,0-4.38-.62-5.62-1.88s-2.04-2.38-2.38-3.38l-9.75-25.5h-66.75l-9.5,25.5c-.34,1-1.09,2.12-2.25,3.38-1.17,1.25-3.17,1.88-6,1.88h-30.75Zm58.75-66.75h46.5l-23.5-66-23,66Z" style="fill: #7468e8;"/>
  <path d="M1933.06,333.87c-1.84,0-3.34-.58-4.5-1.75-1.17-1.16-1.75-2.66-1.75-4.5V165.12c0-1.83,.58-3.33,1.75-4.5s2.66-1.75,4.5-1.75h33.5c1.83,0,3.33,.59,4.5,1.75,1.16,1.17,1.75,2.67,1.75,4.5v162.5c0,1.84-.59,3.34-1.75,4.5s-2.67,1.75-4.5,1.75h-33.5Z" style="fill: #7468e8;"/>

  <path d="M479.08,400.76h0c-8.44-74.43-49.72-135.59-113.37-170.1-2.37,14.44-5.9,28.81-10.55,42.96,38.97,23.32,70.4,66.97,79.22,115.99-46.89,16.91-100.25,11.52-140.06-10.59,0,0-.02,.02-.03,.03-43.46-23.37-76.89-62.26-96.49-107.01-13.9,2.99-27.52,7.5-40.4,13.56,2.52,6,5.27,11.95,8.24,17.81h0c56.84,112.71,181.99,171.9,300.76,119.33,0,0,0,0,0,0l14.55-6.26-1.85-15.73Z" style="fill: #7468e8;"/>
  <path d="M179.61,180.35c.72-45.4,22.78-94.46,60.84-126.58,84.3,75.32,72.68,186.21,16.47,263.65,9.54,10.54,20.24,20.08,31.92,28.2,8.02-10.54,15.44-21.86,21.89-33.62h0c4.71-8.58,8.99-17.39,12.78-26.41,0,0,0,0-.01,0,12.62-30.11,19.5-61.78,20.24-92.93,0,0,.01,0,.02,0,1.59-56.43-18.49-111.75-57.18-153.19-7.53-8.19-15.7-15.8-24.29-22.87-5.81-4.82-15.75-12.04-21.83-16.61l-12.7,9.47h0c-60.24,44.52-92.56,110.85-90.63,183.22,13.69-5.17,27.9-9.3,42.47-12.34Z" style="fill: #7468e8;"/>
  <path d="M186.6,379.02c-39.68,22.07-93.2,27.5-140.04,10.59,19.91-104.51,120.11-157.25,220.1-146.09,4.36-13.54,7.27-27.58,8.46-41.77-22.81-2.92-46.4-2.9-69.31,0,0,0,0,0,0,0-32.37,4.12-63.23,13.97-90.6,28.92h0c-10.15,5.55-19.89,11.84-29.1,18.84,0,0,0,0,0,0,0,0,0,0,0,0-32.25,24.4-57.2,57.99-71.13,95.96-8.48,21.95-12.63,47.22-14.97,71l14.55,6.26s0,0,0,0c68.67,29.9,142.27,24.73,203.97-13.12-11.32-9.27-22-19.51-31.92-30.62Z" style="fill: #7468e8;"/>
</svg>