<?xml version="1.0" standalone="no"?>
<!DOCTYPE svg PUBLIC "-//W3C//DTD SVG 20010904//EN"
 "http://www.w3.org/TR/2001/REC-SVG-20010904/DTD/svg10.dtd">
<svg version="1.0" xmlns="http://www.w3.org/2000/svg"
 width="1036.000000pt" height="1036.000000pt" viewBox="0 0 1036.000000 1036.000000"
 preserveAspectRatio="xMidYMid meet">
<metadata>
Created by potrace 1.14, written by Peter Selinger 2001-2017
</metadata>
<g transform="translate(0.000000,1036.000000) scale(0.100000,-0.100000)"
fill="#000000" stroke="none">
<path d="M5150 9909 c-14 -11 -33 -27 -43 -35 -9 -7 -21 -14 -26 -14 -5 0 -11
-4 -13 -8 -1 -4 -57 -48 -123 -98 -66 -49 -127 -94 -135 -101 -63 -50 -198
-161 -211 -173 -9 -8 -42 -37 -73 -65 -69 -60 -272 -260 -341 -336 -132 -145
-197 -225 -327 -399 -27 -36 -52 -69 -56 -75 -11 -15 -153 -232 -190 -291 -18
-28 -32 -56 -32 -62 0 -7 -3 -12 -7 -12 -5 0 -19 -24 -33 -53 -14 -28 -28 -54
-31 -57 -8 -7 -169 -338 -169 -348 0 -5 -10 -28 -22 -53 -12 -24 -23 -48 -24
-54 -2 -5 -17 -46 -34 -90 -27 -69 -86 -239 -94 -270 -13 -51 -29 -104 -37
-125 -5 -14 -11 -34 -13 -45 -3 -11 -16 -67 -31 -125 -24 -99 -28 -119 -40
-187 -2 -16 -6 -37 -8 -48 -3 -11 -8 -40 -12 -65 -4 -25 -9 -54 -11 -65 -5
-27 -13 -82 -19 -135 -3 -25 -8 -61 -10 -80 -17 -145 -27 -336 -26 -510 1
-206 -3 -191 40 -175 20 7 56 21 81 33 25 11 59 24 75 30 17 6 39 13 50 18 11
4 25 8 30 10 6 1 24 8 40 15 17 6 35 13 40 15 6 1 42 14 82 27 39 14 74 23 77
19 3 -3 6 0 6 6 0 7 3 11 8 10 4 -1 25 4 47 10 22 6 42 11 45 11 3 0 31 9 63
20 31 11 57 18 57 15 0 -3 8 0 19 5 10 6 33 13 52 16 56 9 99 26 100 38 0 7 2
44 4 82 4 95 15 227 20 245 2 8 7 40 10 70 8 73 18 136 40 238 3 12 7 32 10
45 16 75 27 124 32 137 3 8 7 20 8 25 21 87 110 353 148 437 14 31 23 59 19
62 -3 3 -1 6 5 6 9 0 20 21 20 40 0 3 11 25 24 50 13 25 24 47 24 50 1 7 69
139 93 182 11 18 34 60 52 93 19 33 44 74 57 91 13 17 23 33 23 37 0 9 113
171 124 179 6 4 8 8 4 8 -5 0 0 9 10 19 9 11 22 26 27 33 6 7 30 40 55 73 25
33 55 69 68 81 12 12 22 24 22 27 0 12 229 250 321 332 93 84 80 80 130 34
135 -124 300 -293 369 -378 19 -24 43 -53 54 -64 10 -12 51 -65 90 -117 39
-52 74 -97 77 -100 3 -3 8 -9 10 -15 2 -5 34 -55 70 -110 36 -55 80 -125 97
-155 67 -116 219 -430 226 -465 2 -5 9 -26 18 -45 8 -19 21 -53 28 -75 7 -22
17 -49 22 -60 5 -11 15 -42 23 -70 7 -27 27 -97 43 -155 17 -58 33 -118 36
-135 2 -16 8 -41 11 -55 3 -14 8 -36 11 -50 2 -14 6 -34 9 -46 3 -12 7 -39 10
-60 3 -21 8 -55 11 -74 11 -63 12 -74 19 -130 27 -233 33 -673 11 -830 -3 -19
-8 -64 -12 -100 -4 -36 -8 -74 -9 -85 -13 -89 -18 -123 -22 -140 -2 -11 -6
-36 -9 -55 -11 -81 -59 -294 -95 -425 -31 -114 -131 -417 -154 -470 -11 -27
-25 -61 -30 -75 -4 -13 -27 -64 -46 -108 -41 -88 -62 -137 -64 -142 -4 -16
-72 -149 -88 -172 -10 -16 -15 -28 -12 -28 3 0 -3 -13 -14 -29 -12 -16 -21
-32 -21 -35 0 -25 -151 -284 -217 -372 -13 -17 -23 -34 -23 -38 0 -4 -6 -13
-12 -20 -7 -8 -20 -24 -28 -36 -25 -38 -104 -144 -117 -158 -18 -19 -8 -33
104 -147 119 -121 191 -187 333 -304 14 -11 32 -26 40 -33 8 -7 32 -26 54 -42
22 -16 49 -38 60 -48 11 -10 24 -18 29 -18 4 0 15 -7 23 -15 27 -27 26 -27 99
70 24 33 48 65 53 70 5 6 17 24 28 40 10 17 24 36 31 43 7 7 13 16 13 20 0 4
11 20 25 36 14 16 25 33 25 37 0 4 6 14 13 21 16 18 57 80 140 218 78 129 86
143 147 255 23 44 53 99 66 122 12 22 20 44 17 47 -4 3 -1 6 5 6 7 0 12 4 12
9 0 5 24 57 52 117 29 60 51 112 50 117 -1 4 3 7 8 7 5 0 9 3 8 8 -1 7 2 17
52 133 17 40 28 74 26 76 -3 3 4 25 14 49 11 24 19 45 19 47 0 2 18 52 28 77
3 8 7 20 8 25 5 19 36 110 45 130 9 21 27 78 35 111 3 10 14 51 25 89 12 39
23 77 25 85 1 8 11 44 20 80 9 36 18 72 20 80 2 8 9 38 15 65 19 82 31 139 35
172 2 11 6 29 9 40 3 10 8 36 11 58 2 22 7 51 10 65 3 14 7 43 10 65 2 22 6
56 9 75 3 19 8 58 12 85 4 28 8 64 9 80 2 17 6 64 10 105 3 41 8 102 10 135 3
33 7 94 11 135 9 108 10 270 2 270 -4 0 -3 13 2 29 4 16 6 31 4 33 -2 3 -6 52
-9 110 -3 58 -7 123 -10 144 -2 22 -7 68 -11 104 -3 36 -7 76 -9 90 -9 68 -18
123 -31 200 -8 47 -17 97 -19 112 -2 15 -8 44 -14 65 -6 21 -12 52 -15 68 -3
17 -24 95 -46 175 -23 80 -42 151 -42 158 -1 6 -5 12 -10 12 -5 0 -7 4 -4 8 3
5 -2 28 -10 53 -33 94 -106 286 -124 326 -11 24 -20 45 -20 48 0 8 -60 137
-120 255 -68 135 -183 335 -251 437 -27 40 -49 77 -49 83 0 5 -3 10 -8 10 -4
0 -31 35 -60 79 -29 43 -61 86 -72 96 -11 10 -20 24 -20 31 0 7 -3 14 -8 16
-4 2 -36 39 -71 83 -213 265 -507 560 -766 769 -38 31 -81 65 -93 76 -13 11
-28 20 -33 20 -5 0 -9 4 -9 8 0 4 -12 15 -27 24 -16 9 -39 26 -53 38 -23 20
-106 79 -148 105 -9 6 -25 18 -36 28 -24 21 -25 21 -56 -4z"/>
<path d="M4846 5733 c-2 -2 -48 -6 -102 -8 -55 -2 -99 -5 -99 -5 0 -3 -32 -8
-90 -14 -33 -3 -76 -9 -95 -11 -19 -3 -51 -7 -70 -10 -40 -5 -63 -9 -175 -31
-44 -8 -91 -17 -105 -19 -14 -2 -37 -8 -51 -13 -15 -6 -29 -9 -31 -7 -2 2 -26
-2 -52 -10 -27 -8 -52 -13 -56 -10 -5 3 -10 1 -12 -4 -1 -6 -16 -12 -33 -15
-16 -2 -30 -5 -30 -6 0 -2 -9 -4 -20 -5 -18 -2 -137 -38 -175 -52 -8 -3 -20
-7 -27 -8 -28 -7 -237 -82 -323 -117 -52 -21 -99 -40 -105 -42 -17 -5 -83 -36
-280 -132 -205 -100 -338 -172 -343 -186 -2 -4 -9 -8 -15 -8 -7 0 -36 -16 -64
-35 -29 -19 -57 -35 -63 -35 -5 0 -10 -3 -10 -8 0 -4 -17 -16 -37 -27 -21 -11
-40 -22 -43 -26 -3 -3 -34 -25 -70 -49 -36 -24 -66 -47 -68 -52 -2 -4 -8 -8
-13 -8 -12 0 -230 -165 -275 -207 -7 -7 -15 -13 -18 -13 -3 0 -14 -8 -24 -17
-10 -10 -45 -40 -77 -68 -103 -89 -156 -137 -289 -271 -136 -136 -246 -251
-246 -259 0 -2 -12 -17 -28 -33 -39 -42 -92 -103 -92 -108 0 -2 -8 -12 -17
-23 -10 -10 -28 -31 -40 -47 -12 -16 -29 -38 -37 -49 -42 -53 -125 -167 -165
-225 -25 -36 -50 -68 -55 -72 -6 -4 -7 -8 -2 -8 5 0 2 -8 -6 -17 -23 -27 -138
-213 -138 -224 0 -5 -4 -9 -9 -9 -5 0 -11 -8 -14 -17 -3 -10 -25 -52 -48 -93
-80 -145 -137 -259 -131 -264 3 -3 0 -6 -6 -6 -7 0 -12 -5 -12 -11 0 -6 -14
-40 -30 -76 -17 -36 -40 -89 -52 -117 -11 -28 -26 -64 -33 -81 -8 -16 -17 -42
-20 -58 -4 -15 -11 -30 -16 -33 -5 -3 -9 -12 -9 -21 0 -8 -6 -29 -14 -46 -8
-18 -24 -63 -36 -102 -13 -38 -26 -79 -31 -90 -5 -11 -16 -47 -25 -80 -40
-150 -66 -252 -70 -270 -3 -17 -15 -70 -19 -85 -2 -7 -15 -71 -19 -90 -2 -8
-6 -31 -10 -50 -4 -19 -9 -51 -11 -70 -4 -45 -14 -108 -21 -140 -3 -14 -8 -49
-10 -77 -2 -29 -6 -65 -8 -80 -3 -16 -8 -50 -11 -78 -4 -27 -9 -63 -11 -79 -5
-29 12 -60 27 -50 5 3 9 0 9 -5 0 -6 5 -11 11 -11 5 0 35 -11 65 -25 30 -14
57 -25 60 -25 3 0 24 -8 47 -19 191 -85 350 -149 496 -198 42 -13 83 -27 91
-30 20 -8 24 -9 100 -30 36 -10 68 -22 72 -28 4 -5 8 -7 8 -4 0 4 35 -2 78
-13 42 -11 84 -21 92 -23 8 -2 47 -11 85 -20 84 -20 88 -21 145 -30 25 -4 54
-9 65 -12 11 -2 34 -6 50 -8 17 -2 41 -6 55 -9 39 -7 89 -14 165 -22 39 -3 86
-8 105 -10 282 -28 710 -23 975 10 28 4 79 11 115 16 36 6 81 12 100 15 19 2
46 7 60 10 14 3 40 8 59 11 50 8 56 10 196 43 72 17 152 38 180 46 27 9 59 17
70 19 18 4 190 59 225 73 8 4 17 7 20 7 8 2 72 27 107 42 17 8 35 14 40 14 4
1 26 9 48 20 22 11 43 19 46 20 4 0 38 14 75 32 38 18 75 33 83 35 8 1 17 6
20 11 3 5 18 12 34 16 15 3 27 11 27 16 0 6 5 10 12 10 12 0 139 60 148 71 3
3 30 18 60 33 30 16 62 34 70 40 8 7 26 17 40 24 30 14 63 35 70 43 3 3 20 14
38 23 17 9 32 21 32 25 0 5 -26 31 -57 58 -32 26 -60 50 -63 53 -3 3 -36 32
-75 65 -38 33 -93 84 -122 112 -30 29 -59 53 -65 53 -6 0 -9 2 -7 4 2 3 -62
73 -142 156 l-147 151 -69 -38 c-77 -45 -180 -94 -189 -92 -4 0 -10 -3 -13 -8
-6 -8 -145 -72 -171 -78 -8 -2 -35 -12 -60 -23 -25 -11 -54 -22 -65 -24 -11
-1 -22 -5 -25 -8 -15 -17 -405 -123 -525 -144 -16 -3 -39 -7 -50 -9 -11 -3
-40 -8 -65 -11 -25 -3 -58 -9 -75 -12 -16 -3 -50 -7 -75 -9 -25 -2 -45 -5 -45
-5 0 -12 -562 -33 -588 -22 -4 2 -42 5 -85 7 -72 4 -102 7 -207 21 -22 2 -56
6 -75 8 -33 3 -65 8 -135 22 -16 3 -43 7 -58 10 -15 2 -36 8 -46 13 -10 6 -21
8 -24 5 -3 -4 -32 1 -64 11 -32 9 -76 21 -98 27 -22 6 -61 17 -86 24 -25 8
-54 17 -65 19 -10 2 -41 12 -67 21 -46 16 -48 18 -43 50 6 34 43 179 53 204 3
8 7 20 8 25 6 24 79 233 96 271 9 23 15 45 12 48 -4 3 -1 6 5 6 7 0 12 8 12
18 0 10 5 23 12 30 7 7 9 12 6 12 -6 0 44 111 72 162 6 10 10 25 10 33 0 8 4
15 9 15 5 0 12 10 16 23 4 12 8 24 9 27 7 18 60 116 65 120 4 3 15 23 26 45
10 22 40 75 67 117 26 43 48 82 48 88 0 5 4 10 9 10 5 0 13 9 16 20 3 11 12
26 18 32 7 7 30 40 52 73 22 33 42 62 45 65 3 3 26 34 52 70 25 36 54 75 64
87 11 12 26 30 34 40 23 28 111 133 145 173 51 59 277 282 354 350 40 36 82
73 92 82 10 9 73 59 141 110 68 51 125 96 126 100 2 5 9 8 16 8 7 0 29 15 49
34 20 18 37 32 37 29 0 -2 7 3 16 11 8 9 21 16 29 16 7 0 15 4 17 9 8 22 410
248 431 243 4 -1 7 2 7 8 0 5 4 10 9 10 5 0 45 16 88 36 74 34 122 56 133 59
3 1 22 9 44 18 21 9 44 17 50 17 7 0 16 4 22 9 14 14 272 100 278 93 3 -3 6
-1 6 5 0 5 6 10 13 10 6 0 75 17 152 38 77 20 149 38 160 41 36 7 119 23 150
29 17 3 57 10 90 15 33 4 80 11 105 15 25 4 63 9 85 11 22 2 60 6 85 8 255 26
650 22 885 -9 17 -2 55 -6 85 -10 84 -10 85 -10 96 -18 11 -6 47 88 47 120 0
7 4 13 9 13 5 0 7 3 4 8 -2 4 2 31 9 59 8 29 16 65 19 80 3 15 8 39 11 53 3
14 8 39 11 55 3 17 11 64 19 105 8 41 17 98 20 125 3 28 7 64 9 80 2 17 7 69
11 116 l6 87 -38 7 c-47 9 -86 14 -138 19 -22 2 -61 7 -88 11 -26 4 -71 8
-100 11 -28 2 -83 6 -122 9 -78 7 -683 13 -689 8z"/>
<path d="M7786 5002 c-3 -15 -8 -43 -11 -62 -10 -59 -18 -105 -30 -160 -3 -14
-7 -34 -9 -45 -3 -11 -14 -63 -26 -115 -12 -52 -23 -103 -25 -113 -2 -10 -7
-27 -10 -37 -3 -10 -8 -29 -11 -42 -6 -27 -9 -37 -16 -58 -8 -20 -31 -102 -34
-117 -1 -7 -12 -42 -23 -77 -12 -36 -21 -71 -21 -78 0 -8 48 -47 106 -88 58
-41 116 -84 128 -96 11 -11 41 -36 66 -55 25 -18 50 -38 56 -44 6 -5 35 -30
64 -55 64 -53 374 -360 364 -360 -4 0 2 -8 12 -17 21 -20 83 -91 126 -144 41
-52 97 -123 106 -134 89 -121 132 -184 132 -194 0 -5 4 -11 9 -13 22 -8 188
-294 281 -483 72 -145 190 -427 193 -457 1 -10 5 -18 10 -18 5 0 7 -9 4 -20
-3 -11 -2 -20 2 -20 4 0 15 -28 25 -62 10 -35 22 -74 27 -88 12 -35 49 -178
49 -190 0 -11 -53 -37 -87 -43 -10 -2 -45 -12 -78 -22 -33 -11 -63 -20 -67
-21 -5 -1 -9 -2 -10 -4 -2 -1 -10 -3 -18 -5 -8 -2 -25 -6 -37 -9 -86 -22 -185
-44 -223 -51 -101 -18 -263 -44 -269 -43 -3 0 -8 0 -11 -1 -5 -2 -20 -3 -190
-16 -106 -8 -409 -9 -510 -1 -116 9 -208 20 -279 31 -13 2 -45 7 -70 11 -25 4
-55 8 -66 11 -11 2 -31 6 -45 9 -14 3 -45 10 -70 15 -25 6 -56 13 -70 15 -26
5 -105 27 -179 50 -24 7 -47 11 -51 9 -5 -3 -10 -1 -12 5 -1 5 -12 11 -23 13
-11 1 -24 5 -30 8 -5 4 -22 9 -37 13 -15 3 -40 11 -55 18 -15 6 -32 12 -38 13
-16 4 -163 64 -182 74 -10 5 -56 27 -103 48 -47 21 -103 48 -125 60 -22 12
-74 39 -115 61 -145 76 -169 90 -163 96 4 3 0 6 -7 6 -24 0 -390 253 -456 316
-6 5 -31 26 -54 45 -63 51 -128 108 -187 165 -29 28 -53 50 -53 49 0 -5 -199
201 -237 244 -21 25 -52 59 -68 77 -17 17 -42 47 -55 64 -14 18 -36 44 -48 59
-13 14 -41 51 -61 81 -37 56 -120 171 -147 203 -7 9 -14 20 -14 23 0 3 -8 16
-17 29 -10 12 -24 31 -30 41 -7 11 -26 39 -43 64 -16 25 -30 51 -30 58 0 6 -4
12 -9 12 -5 0 -16 15 -25 33 -9 17 -22 41 -29 51 -32 52 -74 125 -92 161 -10
22 -26 48 -34 58 -8 9 -10 17 -5 17 5 0 5 4 -1 8 -16 11 -106 199 -176 367
-21 50 -44 91 -52 93 -17 3 -305 -86 -317 -98 -3 -3 -12 -6 -20 -8 -8 -1 -24
-6 -35 -11 -11 -5 -45 -19 -75 -31 -119 -48 -344 -157 -371 -179 -18 -15 -18
-16 28 -121 9 -19 24 -55 35 -80 11 -25 25 -56 32 -70 8 -14 19 -43 26 -65 7
-22 20 -53 28 -70 9 -16 16 -32 17 -35 1 -10 50 -105 72 -141 12 -20 20 -39
17 -41 -2 -3 2 -11 11 -18 8 -7 15 -16 15 -20 0 -5 23 -48 51 -97 52 -88 76
-130 101 -174 7 -13 15 -26 18 -29 3 -3 30 -43 59 -90 29 -47 57 -86 62 -88 5
-2 9 -8 9 -14 0 -8 86 -135 117 -173 5 -5 35 -46 68 -90 33 -44 62 -82 65 -85
3 -3 37 -43 75 -90 103 -126 106 -129 157 -182 25 -26 44 -48 42 -48 -11 0
336 -338 432 -420 83 -71 103 -87 138 -115 21 -16 44 -35 50 -40 20 -19 170
-131 241 -180 39 -27 73 -53 77 -59 5 -7 8 -7 8 -1 0 6 3 5 8 -1 4 -6 32 -26
62 -45 30 -18 57 -36 60 -39 24 -28 495 -281 646 -346 27 -12 65 -29 86 -38
93 -41 384 -146 488 -176 93 -26 115 -33 130 -38 8 -3 24 -7 34 -9 10 -2 55
-13 100 -24 45 -12 90 -22 101 -24 11 -2 32 -6 48 -9 42 -9 75 -16 105 -21 73
-13 99 -18 117 -20 100 -14 125 -17 155 -21 19 -2 53 -6 75 -8 234 -28 807
-28 958 -1 15 3 50 7 76 9 27 2 53 6 58 9 5 3 21 4 36 3 15 -2 27 0 27 4 0 4
10 6 23 6 12 -1 26 0 32 3 10 5 22 7 83 12 17 2 32 7 32 12 0 4 4 6 8 3 8 -5
226 39 242 49 4 2 22 7 41 9 19 3 72 17 119 31 47 15 93 28 103 30 9 2 22 7
27 10 5 3 18 8 28 10 21 4 167 52 197 65 11 4 63 25 115 45 52 21 118 48 147
61 28 13 54 24 57 24 3 0 31 12 63 27 32 15 64 28 72 29 8 2 17 8 21 14 4 7
10 11 14 9 4 -1 38 11 76 27 77 32 71 19 54 131 -3 21 -7 51 -9 66 -2 15 -7
47 -11 70 -4 23 -8 56 -10 72 -1 17 -5 41 -9 55 -7 31 -15 85 -20 125 -1 17
-4 30 -5 30 -2 0 -3 8 -15 75 -3 19 -20 94 -37 165 -16 72 -31 138 -33 148 -2
9 -7 22 -10 28 -4 5 -9 25 -12 42 -3 18 -9 40 -14 49 -5 9 -9 26 -9 37 0 12
-4 21 -8 21 -4 0 -8 8 -9 18 -3 34 -99 309 -142 407 -10 22 -29 67 -42 100
-13 33 -32 75 -41 93 -10 18 -18 39 -18 47 0 8 -5 15 -10 15 -6 0 -9 3 -8 8 4
12 -125 261 -201 390 -17 29 -31 55 -31 58 0 8 -75 119 -82 122 -5 2 -8 9 -8
15 0 6 -23 45 -52 86 -71 105 -171 245 -178 251 -3 3 -17 21 -30 40 -27 38
-55 73 -82 102 -10 10 -18 21 -18 24 0 3 -6 11 -12 18 -7 7 -33 37 -58 66 -57
68 -127 145 -207 228 -35 36 -63 69 -63 74 0 4 -4 8 -9 8 -4 0 -42 33 -83 73
-72 70 -127 120 -199 181 -19 16 -50 43 -70 60 -19 17 -53 45 -74 61 -22 17
-47 38 -57 48 -10 9 -18 14 -18 10 0 -4 -12 5 -27 18 -16 14 -53 43 -83 64
-30 22 -57 42 -60 45 -15 15 -297 196 -357 228 -19 11 -22 9 -27 -16z"/>
</g>
</svg>
